<?xml version="1.0" encoding="UTF-8"?>
<svg xmlns="http://www.w3.org/2000/svg" id="Layer_1" data-name="Layer 1" viewBox="0 0 24 24">
  <path d="m16.523,5.404c-1.287-.884-2.844-1.404-4.523-1.404-4.418,0-8,3.582-8,8s3.582,8,8,8,8-3.582,8-8c0-.339-.028-.672-.069-1h-1.931c-1.657,0-3-1.343-3-3,0-1.117.617-2.08,1.523-2.596Zm-.875,7.567c.47.292.613.911.32,1.38-.292.467-.908.609-1.376.318l-3.121-1.942c-.293-.182-.471-.503-.471-.849v-4.878c0-.552.448-1,1-1h0c.552,0,1,.448,1,1v4.326l2.648,1.645ZM24,3v4c0,1.105-.895,2-2,2h-4c-.552,0-1-.448-1-1s.448-1,1-1h2.636c-1.789-3.088-5.04-4.992-8.636-4.992v-.008C6.486,2,2,6.486,2,12s4.486,10,10,10c.24,0,.478-.009.714-.025.557-.049,1.029.376,1.068.926.04.551-.375,1.029-.926,1.068-.283.021-.568.031-.856.031C5.383,24,0,18.617,0,12S5.383,0,12,0c.01,0,.018.005.028.006,4.062.009,7.768,2.033,9.972,5.368v-2.374c0-.552.448-1,1-1s1,.448,1,1Zm-5.213,17.715c.299.465.165,1.083-.3,1.382-.459.296-.94.561-1.432.789-.136.063-.279.093-.42.093-.378,0-.738-.214-.908-.579-.232-.501-.015-1.095.486-1.328.408-.189.809-.41,1.191-.656.464-.297,1.083-.163,1.382.3Zm5.213-8.715c0,.545-.037,1.094-.109,1.63-.068.501-.497.865-.99.865-.045,0-.09-.003-.136-.009-.547-.074-.931-.578-.856-1.126.061-.447.092-.905.092-1.36,0-.553.447-1,1-1s1,.447,1,1Zm-1.467,5.753c-.26.475-.557.938-.88,1.377-.196.265-.499.405-.806.405-.206,0-.414-.063-.594-.195-.443-.329-.538-.955-.21-1.399.271-.366.519-.752.735-1.148.265-.484.873-.664,1.357-.396.484.266.662.873.396,1.357Z"/>
</svg>
