<?xml version="1.0" encoding="UTF-8"?>
<svg version="1.1" xmlns="http://www.w3.org/2000/svg" width="1024" height="1024">
<path d="M0 0 C337.92 0 675.84 0 1024 0 C1024 337.92 1024 675.84 1024 1024 C686.08 1024 348.16 1024 0 1024 C0 686.08 0 348.16 0 0 Z " fill="#FEFEFE" transform="translate(0,0)"/>
<path d="M0 0 C5.25739016 2.85284737 9.91804265 6.06956295 14.625 9.75 C16.12605531 10.91047552 17.62736954 12.07061619 19.12890625 13.23046875 C19.91797363 13.84196777 20.70704102 14.4534668 21.52001953 15.08349609 C25.85149168 18.43081411 30.20738667 21.74603563 34.5625 25.0625 C35.45308105 25.74127197 36.34366211 26.42004395 37.26123047 27.11938477 C43.21796958 31.6554356 49.19876467 36.15797341 55.19482422 40.6418457 C62.05799727 45.78012889 68.85948817 50.99820662 75.66503906 56.21240234 C86.80346473 64.73974997 97.96068924 73.24092403 109.19482422 81.6418457 C116.05799727 86.78012889 122.85948817 91.99820662 129.66503906 97.21240234 C140.80346473 105.73974997 151.96068924 114.24092403 163.19482422 122.6418457 C170.05799727 127.78012889 176.85948817 132.99820662 183.66503906 138.21240234 C194.07772713 146.18414032 204.4975668 154.14672014 215 162 C225.61195575 169.93527337 236.13204062 177.99155651 246.66308594 186.03369141 C257.08975168 193.99534689 267.54187863 201.91976665 278.04541016 209.77978516 C283.5608617 213.91062284 289.03859422 218.08463671 294.4921875 222.296875 C306.91787823 231.88682718 319.44139608 241.34818017 332.00830078 250.75195312 C340.42579839 257.05620781 348.80325816 263.40987907 357 270 C355.69232452 273.63923643 354.12558897 276.43111138 351.76171875 279.484375 C350.7871875 280.75244995 350.7871875 280.75244995 349.79296875 282.04614258 C349.09816406 282.93841553 348.40335938 283.83068848 347.6875 284.75 C346.97851562 285.66998779 346.26953125 286.58997559 345.5390625 287.5378418 C344.07947502 289.43168266 342.61771041 291.32384753 341.15380859 293.21435547 C337.91766245 297.3998494 334.70963978 301.60667139 331.5 305.8125 C329.66727232 308.20879741 327.83360922 310.604377 326 313 C319.82374235 309.005202 313.95527198 304.74897357 308.1875 300.1875 C306.60085839 298.94324751 305.01361865 297.69975738 303.42578125 296.45703125 C302.66475098 295.86100098 301.9037207 295.2649707 301.11962891 294.65087891 C296.46737465 291.02745766 291.72961812 287.52205605 287 284 C281.72 280.04 276.44 276.08 271 272 C270.67 404.33 270.34 536.66 270 673 C131.73 673 -6.54 673 -149 673 C-149 678.94 -149 684.88 -149 691 C-24.59 691 99.82 691 228 691 C228 705.85 228 720.7 228 736 C87.09 736 -53.82 736 -199 736 C-199 715.21 -199 694.42 -199 673 C-220.78 673 -242.56 673 -265 673 C-265 539.35 -265 405.7 -265 268 C-278.2817813 277.95900903 -278.2817813 277.95900903 -291.5 288 C-297.96638645 292.93367055 -304.43799287 297.86001165 -310.9375 302.75 C-311.56914062 303.22695313 -312.20078125 303.70390625 -312.8515625 304.1953125 C-316.49103512 306.92689065 -320.19042913 309.51069262 -324 312 C-348.96153846 280.11336032 -348.96153846 280.11336032 -356 269 C-355.37738281 268.5359375 -354.75476563 268.071875 -354.11328125 267.59375 C-347.21223813 262.43481121 -340.35025994 257.22618431 -333.5 252 C-327.11409567 247.12817568 -320.71576507 242.27614632 -314.28125 237.46875 C-309.66612776 234.00740832 -305.08652975 230.49906802 -300.5 227 C-295.01382408 222.81459103 -289.52797214 218.63009413 -284 214.5 C-278.55549431 210.43217646 -273.15281111 206.31049628 -267.75 202.1875 C-260.89627479 196.95778866 -254.02482844 191.75411472 -247.1184082 186.59423828 C-240.46540465 181.61607548 -233.86426118 176.57004862 -227.26757812 171.51757812 C-226.42517578 170.87369141 -225.58277344 170.22980469 -224.71484375 169.56640625 C-223.97355225 168.99865479 -223.23226074 168.43090332 -222.46850586 167.84594727 C-220 166 -220 166 -216.40112305 164.27496338 C-213.77075755 162.37067553 -213.08516946 161.37024096 -212.34797764 158.16558743 C-212.09438852 154.35325474 -212.06790866 150.57188193 -212.11352539 146.75463867 C-212.10563414 145.2859204 -212.09467148 143.8172159 -212.08087158 142.34854126 C-212.05215339 138.36716728 -212.06637379 134.38696938 -212.08831334 130.40559554 C-212.10394768 126.24282428 -212.08008215 122.08028392 -212.06040955 117.91755676 C-212.02916953 110.03753449 -212.0334448 102.15794777 -212.05048412 94.27789813 C-212.07146028 83.62778892 -212.03756662 72.97786344 -212.00674725 62.3278017 C-211.95964658 45.55166412 -211.98584948 28.7764566 -212 12 C-187.25 12 -162.5 12 -137 12 C-137 42.03 -137 72.06 -137 103 C-125.69123673 94.66722706 -114.43583926 86.32671049 -103.30419922 77.76855469 C-98.93982579 74.41874317 -94.56354781 71.08453758 -90.1875 67.75 C-89.28273926 67.0605127 -88.37797852 66.37102539 -87.44580078 65.66064453 C-82.0706808 61.56771772 -76.67784896 57.50073572 -71.265625 53.45703125 C-66.73903575 50.06208931 -62.24806783 46.62006808 -57.75 43.1875 C-50.89418409 37.95619336 -44.02127969 32.75005321 -37.11181641 27.58984375 C-33.28985027 24.73085468 -29.48644817 21.84899828 -25.6953125 18.94921875 C-24.77234375 18.24345703 -23.849375 17.53769531 -22.8984375 16.81054688 C-21.10798348 15.43996694 -19.31882494 14.06769222 -17.53125 12.69335938 C-11.79419414 8.30175857 -5.95086482 4.09706969 0 0 Z " fill="#37B5FE" transform="translate(511,144)"/>
<path d="M0 0 C5.25739016 2.85284737 9.91804265 6.06956295 14.625 9.75 C16.12605531 10.91047552 17.62736954 12.07061619 19.12890625 13.23046875 C19.91797363 13.84196777 20.70704102 14.4534668 21.52001953 15.08349609 C25.85149168 18.43081411 30.20738667 21.74603563 34.5625 25.0625 C35.45308105 25.74127197 36.34366211 26.42004395 37.26123047 27.11938477 C43.21796958 31.6554356 49.19876467 36.15797341 55.19482422 40.6418457 C62.05799727 45.78012889 68.85948817 50.99820662 75.66503906 56.21240234 C86.80346473 64.73974997 97.96068924 73.24092403 109.19482422 81.6418457 C116.05799727 86.78012889 122.85948817 91.99820662 129.66503906 97.21240234 C140.80346473 105.73974997 151.96068924 114.24092403 163.19482422 122.6418457 C170.05799727 127.78012889 176.85948817 132.99820662 183.66503906 138.21240234 C194.07772713 146.18414032 204.4975668 154.14672014 215 162 C225.61195575 169.93527337 236.13204062 177.99155651 246.66308594 186.03369141 C257.08975168 193.99534689 267.54187863 201.91976665 278.04541016 209.77978516 C283.5608617 213.91062284 289.03859422 218.08463671 294.4921875 222.296875 C306.91787823 231.88682718 319.44139608 241.34818017 332.00830078 250.75195312 C340.42579839 257.05620781 348.80325816 263.40987907 357 270 C355.69232452 273.63923643 354.12558897 276.43111138 351.76171875 279.484375 C350.7871875 280.75244995 350.7871875 280.75244995 349.79296875 282.04614258 C349.09816406 282.93841553 348.40335938 283.83068848 347.6875 284.75 C346.97851562 285.66998779 346.26953125 286.58997559 345.5390625 287.5378418 C344.07947502 289.43168266 342.61771041 291.32384753 341.15380859 293.21435547 C337.91766245 297.3998494 334.70963978 301.60667139 331.5 305.8125 C329.66727232 308.20879741 327.83360922 310.604377 326 313 C319.82374587 309.00520428 313.95525421 304.74898835 308.1875 300.1875 C306.59435421 298.9380313 305.00060467 297.68933203 303.40625 296.44140625 C302.64441406 295.84473145 301.88257813 295.24805664 301.09765625 294.63330078 C297.5555595 291.87531344 293.9555691 289.19707906 290.35546875 286.515625 C285.87707344 283.17048643 281.44263927 279.76737089 277 276.375 C269.85870795 270.92400389 262.69366525 265.50668311 255.5 260.125 C249.13934712 255.36534854 242.81040894 250.57148879 236.5234375 245.71484375 C225.66221004 237.33203881 214.73752941 229.02899713 203.75 220.8125 C196.23545129 215.193105 188.78331415 209.49428799 181.33496094 203.78759766 C170.19653527 195.26025003 159.03931076 186.75907597 147.80517578 178.3581543 C140.94200273 173.21987111 134.14051183 168.00179338 127.33496094 162.78759766 C116.92227287 154.81585968 106.5024332 146.85327986 96 139 C85.38804425 131.06472663 74.86795938 123.00844349 64.33691406 114.96630859 C53.91689348 107.00972726 43.47237143 99.08905824 32.97436523 91.2355957 C27.27585457 86.9686885 21.62051067 82.65071253 15.98828125 78.296875 C11.0276167 74.48397206 6.01506357 70.74096633 1 67 C-5.08747142 70.94068198 -10.87868831 75.12491905 -16.5625 79.625 C-22.26855567 84.10272197 -27.99749811 88.53957239 -33.8125 92.875 C-40.0721488 97.5438817 -46.29320385 102.26107627 -52.5 107 C-58.6476468 111.69248133 -64.80526477 116.36984066 -71 121 C-77.11129434 125.56785682 -83.18573478 130.18241137 -89.25 134.8125 C-96.1425044 140.07441192 -103.05633226 145.30579363 -110 150.5 C-120.38268691 158.26888506 -130.69404601 166.12975828 -141 174 C-151.27148321 181.84149088 -161.54404277 189.67955059 -171.89477539 197.41625977 C-178.46290761 202.33219861 -184.98199786 207.31206007 -191.50390625 212.2890625 C-196.89433952 216.40094498 -202.3031932 220.48510006 -207.734375 224.54296875 C-212.26096425 227.93791069 -216.75193217 231.37993192 -221.25 234.8125 C-228.10745867 240.04506014 -234.98341973 245.25050747 -241.89257812 250.41455078 C-248.46134869 255.33118606 -254.9812593 260.31149646 -261.50390625 265.2890625 C-266.89433952 269.40094498 -272.3031932 273.48510006 -277.734375 277.54296875 C-282.26096576 280.93791182 -286.75182438 284.38007056 -291.25 287.8125 C-297.80035997 292.80781422 -304.35479615 297.79735108 -310.9375 302.75 C-311.56881836 303.22671143 -312.20013672 303.70342285 -312.85058594 304.19458008 C-316.49038707 306.92640372 -320.19008553 309.5104681 -324 312 C-348.96153846 280.11336032 -348.96153846 280.11336032 -356 269 C-355.37738281 268.5359375 -354.75476563 268.071875 -354.11328125 267.59375 C-347.21223813 262.43481121 -340.35025994 257.22618431 -333.5 252 C-327.11409567 247.12817568 -320.71576507 242.27614632 -314.28125 237.46875 C-309.66612776 234.00740832 -305.08652975 230.49906802 -300.5 227 C-295.01382408 222.81459103 -289.52797214 218.63009413 -284 214.5 C-278.55549431 210.43217646 -273.15281111 206.31049628 -267.75 202.1875 C-260.89627479 196.95778866 -254.02482844 191.75411472 -247.1184082 186.59423828 C-240.46540465 181.61607548 -233.86426118 176.57004862 -227.26757812 171.51757812 C-226.42517578 170.87369141 -225.58277344 170.22980469 -224.71484375 169.56640625 C-223.97355225 168.99865479 -223.23226074 168.43090332 -222.46850586 167.84594727 C-220 166 -220 166 -216.40112305 164.27496338 C-213.77075755 162.37067553 -213.08516946 161.37024096 -212.34797764 158.16558743 C-212.09438852 154.35325474 -212.06790866 150.57188193 -212.11352539 146.75463867 C-212.10563414 145.2859204 -212.09467148 143.8172159 -212.08087158 142.34854126 C-212.05215339 138.36716728 -212.06637379 134.38696938 -212.08831334 130.40559554 C-212.10394768 126.24282428 -212.08008215 122.08028392 -212.06040955 117.91755676 C-212.02916953 110.03753449 -212.0334448 102.15794777 -212.05048412 94.27789813 C-212.07146028 83.62778892 -212.03756662 72.97786344 -212.00674725 62.3278017 C-211.95964658 45.55166412 -211.98584948 28.7764566 -212 12 C-187.25 12 -162.5 12 -137 12 C-137 42.03 -137 72.06 -137 103 C-125.69123673 94.66722706 -114.43583926 86.32671049 -103.30419922 77.76855469 C-98.93982579 74.41874317 -94.56354781 71.08453758 -90.1875 67.75 C-89.28273926 67.0605127 -88.37797852 66.37102539 -87.44580078 65.66064453 C-82.0706808 61.56771772 -76.67784896 57.50073572 -71.265625 53.45703125 C-66.73903575 50.06208931 -62.24806783 46.62006808 -57.75 43.1875 C-50.89418409 37.95619336 -44.02127969 32.75005321 -37.11181641 27.58984375 C-33.28985027 24.73085468 -29.48644817 21.84899828 -25.6953125 18.94921875 C-24.77234375 18.24345703 -23.849375 17.53769531 -22.8984375 16.81054688 C-21.10798348 15.43996694 -19.31882494 14.06769222 -17.53125 12.69335938 C-11.79419414 8.30175857 -5.95086482 4.09706969 0 0 Z " fill="#000000" transform="translate(511,144)"/>
<path d="M0 0 C16.17 0 32.34 0 49 0 C49 162.03 49 324.06 49 491 C32.83 491 16.66 491 0 491 C0 328.97 0 166.94 0 0 Z " fill="#000000" transform="translate(312,389)"/>
<path d="M0 0 C124.41 0 248.82 0 377 0 C377 14.85 377 29.7 377 45 C252.59 45 128.18 45 0 45 C0 30.15 0 15.3 0 0 Z " fill="#000000" transform="translate(362,835)"/>
<path d="M0 0 C38.94 0 77.88 0 118 0 C118 29.7 118 59.4 118 90 C112.03272717 86.02181811 106.34751552 82.05545602 100.75 77.625 C99.1751902 76.38971799 97.59963816 75.1553818 96.0234375 73.921875 C94.79705566 72.9618457 94.79705566 72.9618457 93.54589844 71.98242188 C82.49578269 63.37799726 71.30180517 54.95588493 60.08618164 46.56884766 C51.0106361 39.77440667 42.01195531 32.87838852 33 26 C29.31306351 23.18676042 25.62545311 20.37440668 21.9375 17.5625 C21.06367676 16.89565186 20.18985352 16.22880371 19.28955078 15.54174805 C15.54478081 12.68683503 11.79623306 9.83859383 8.015625 7.03125 C7.44207275 6.60513428 6.86852051 6.17901855 6.27758789 5.73999023 C4.81642216 4.6579693 3.35173718 3.58070502 1.88671875 2.50390625 C1.26410156 2.00761719 0.64148438 1.51132812 0 1 C0 0.67 0 0.34 0 0 Z " fill="#37B5FE" transform="translate(663,258)"/>
<path d="M0 0 C17.49 0 34.98 0 53 0 C53.37125 7.46625 53.7425 14.9325 54.125 22.625 C54.28887207 24.95127441 54.45274414 27.27754883 54.62158203 29.67431641 C55.20291801 43.99870042 55.20291801 43.99870042 51.26882935 49.35858154 C47.0415155 53.55381441 42.26366144 56.73203435 37.13822937 59.72724915 C34.3060459 61.41306638 31.7809473 63.34399011 29.1875 65.375 C28.27613281 66.05175781 27.36476563 66.72851562 26.42578125 67.42578125 C23.48317803 69.62232023 20.57556515 71.8628406 17.66796875 74.10546875 C16.71575439 74.83781738 15.76354004 75.57016602 14.7824707 76.32470703 C12.86267976 77.80231252 10.94578473 79.28368914 9.03198242 80.76904297 C8.1526001 81.44467285 7.27321777 82.12030273 6.3671875 82.81640625 C5.57425293 83.42943604 4.78131836 84.04246582 3.96435547 84.67407227 C2 86 2 86 0 86 C0 57.62 0 29.24 0 0 Z " fill="#37B5FE" transform="translate(246,258)"/>
<path d="M0 0 C6.08748107 3.94068823 11.87861922 8.12499655 17.5625 12.625 C23.29178279 17.11979972 29.04155385 21.57856372 34.875 25.9375 C35.8196814 26.64410767 35.8196814 26.64410767 36.78344727 27.36499023 C39.73315254 29.56835353 42.68636683 31.76694911 45.64160156 33.96289062 C48.42963401 36.03522126 51.21483953 38.11131186 54 40.1875 C54.89187012 40.84806396 55.78374023 41.50862793 56.70263672 42.18920898 C57.93264404 43.10682007 57.93264404 43.10682007 59.1875 44.04296875 C59.92355469 44.58977295 60.65960937 45.13657715 61.41796875 45.69995117 C61.94003906 46.12896729 62.46210937 46.5579834 63 47 C63 47.33 63 47.66 63 48 C21.75 48 -19.5 48 -62 48 C-56.38222417 42.38222417 -56.38222417 42.38222417 -52.98828125 39.94140625 C-52.23998047 39.39806641 -51.49167969 38.85472656 -50.72070312 38.29492188 C-49.92599609 37.72322266 -49.13128906 37.15152344 -48.3125 36.5625 C-41.78662113 31.81503616 -35.34527803 26.98628047 -29 22 C-20.33313849 15.1959823 -11.48006479 8.66039745 -2.57202148 2.17651367 C-1.04269791 1.09017478 -1.04269791 1.09017478 0 0 Z " fill="#FDFDFD" transform="translate(511,210)"/>
<path d="M0 0 C15.18 0 30.36 0 46 0 C46 15.18 46 30.36 46 46 C30.82 46 15.64 46 0 46 C0 30.82 0 15.64 0 0 Z " fill="#010305" transform="translate(519,410)"/>
<path d="M0 0 C15.18 0 30.36 0 46 0 C46 15.18 46 30.36 46 46 C30.82 46 15.64 46 0 46 C0 30.82 0 15.64 0 0 Z " fill="#010304" transform="translate(462,410)"/>
<path d="M0 0 C14.85 0 29.7 0 45 0 C45 14.85 45 29.7 45 45 C30.15 45 15.3 45 0 45 C0 30.15 0 15.3 0 0 Z " fill="#000000" transform="translate(519,352)"/>
<path d="M0 0 C14.85 0 29.7 0 45 0 C45 14.85 45 29.7 45 45 C30.15 45 15.3 45 0 45 C0 30.15 0 15.3 0 0 Z " fill="#000000" transform="translate(463,352)"/>
</svg>
